# xmcd
#
# Track frame offsets: 
#        150
#        10793
#        33954
#        48436
#        59323
#        72474
#        87792
#        105073
#        117702
#        129282
#        143412
#        153249
#
# Disc length: 2304 seconds
#
# Revision: 0
# Processed by: cddbd v1.5.2PL0 Copyright (c) Steve Scherf et al.
# Submitted via: ExactAudioCopy v0.99pb5
#
DISCID=8f08fe0c
DTITLE=J. J. Cale - The J.J. Cale Collection CD2
DYEAR=2011
DGENRE=Blues
TTITLE0=After Midnight
TTITLE1=Sensitive Kind
TTITLE2=I'll make love to you anytime
TTITLE3=Change your mind
TTITLE4=Lies
TTITLE5=Magnolia
TTITLE6=Mama don't
TTITLE7=Thirteen days
TTITLE8=Shanghaid
TTITLE9=Lonesome train
TTITLE10=Don't cry sister
TTITLE11=Money talks
EXTD=
EXTT0=
EXTT1=
EXTT2=
EXTT3=
EXTT4=
EXTT5=
EXTT6=
EXTT7=
EXTT8=
EXTT9=
EXTT10=
EXTT11=
PLAYORDER=
